# xmcd
#
# Track frame offsets: 
#        182
#        10475
#        23852
#        34900
#        46107
#        56890
#        66917
#        78400
#        88342
#        98370
#        109295
#        119955
#        130862
#        140257
#        149660
#        158267
#        168822
#        178617
#        189422
#        198717
#        209907
#        220670
#        231605
#        241202
#        251842
#        262420
#        274185
#        286270
#        297867
#        307915
#
# Disc length: 4235 seconds
#
# Revision: 2
# Processed by: cddbd v1.5.2PL0 Copyright (c) Steve Scherf et al.
# Submitted via: ExactAudioCopy v1.0b3
#
DISCID=d310891e
DTITLE=maddox brothers and rose - the hillbilly boogie years
DYEAR=1900
DGENRE=
TTITLE0=false hearted 1956
TTITLE1=hey little dreamboat 1956
TTITLE2=wild wild young man 1955
TTITLE3=stop wistlin'wolf 1957
TTITLE4=a short life of it's troubles 1957
TTITLE5=lookie there over there 1956
TTITLE6=you won't believe this 1954
TTITLE7=the death of rock and roll 1956
TTITLE8=ugly and slougy 1956
TTITLE9=i'm a little red caboose 1953
TTITLE10=paul bunyan love 1956
TTITLE11=i gotta go get my baby 1955
TTITLE12=let me love you 1957
TTITLE13=no more time 1955
TTITLE14=i'v go four big brothers (to look after me) 1955
TTITLE15=old blach choo-choo 1955
TTITLE16=no help wanted 1953
TTITLE17=love is strange 1957
TTITLE18=i'll find her 1956
TTITLE19=empty mansions 1953
TTITLE20=i'll go steppin' too 1957
TTITLE21=i'll make sweet love to you 1972
TTITLE22=kiss me quick and go 1953
TTITLE23=did you ever come home 1956
TTITLE24=i wonder if i can loose the blues this way 1954
TTITLE25=marry me again 1954
TTITLE26=a beautiful bouquet 1957
TTITLE27=tall man 1956
TTITLE28=(pay me) alimomony 1954
TTITLE29=south 1956
EXTD=
EXTT0=
EXTT1=
EXTT2=
EXTT3=
EXTT4=
EXTT5=
EXTT6=
EXTT7=
EXTT8=
EXTT9=
EXTT10=
EXTT11=
EXTT12=
EXTT13=
EXTT14=
EXTT15=
EXTT16=
EXTT17=
EXTT18=
EXTT19=
EXTT20=
EXTT21=
EXTT22=
EXTT23=
EXTT24=
EXTT25=
EXTT26=
EXTT27=
EXTT28=
EXTT29=
PLAYORDER=
